<?xml version="1.0" encoding="iso-8859-1"?>
<!-- Generator: Adobe Illustrator 19.0.0, SVG Export Plug-In . SVG Version: 6.00 Build 0)  -->
<svg xmlns="http://www.w3.org/2000/svg" xmlns:xlink="http://www.w3.org/1999/xlink" version="1.1" id="Capa_1" x="0px" y="0px" viewBox="0 0 512 512" style="enable-background:new 0 0 512 512;" xml:space="preserve" width="512px" height="512px">
<g>
  <g>
    <path d="M452.267,392.533H8.533c-4.71,0-8.533,3.814-8.533,8.533v102.4C0,508.186,3.823,512,8.533,512h443.733    c4.719,0,8.533-3.814,8.533-8.533v-102.4C460.8,396.348,456.986,392.533,452.267,392.533z M443.733,494.933H17.067V409.6h426.667    V494.933z" fill="#ffc100"/>
  </g>
</g>
<g>
  <g>
    <path d="M503.467,324.267H59.733c-4.71,0-8.533,3.814-8.533,8.533v68.267c0,4.719,3.823,8.533,8.533,8.533h443.733    c4.719,0,8.533-3.814,8.533-8.533V332.8C512,328.081,508.186,324.267,503.467,324.267z M494.933,392.533H68.267v-51.2h426.667    V392.533z" fill="#ffc100"/>
  </g>
</g>
<g>
  <g>
    <path d="M309.41,59.733h-5.538c-18.295,0.009-35.516,7.518-47.872,20.523c-12.365-13.005-29.577-20.514-47.872-20.523h-5.547    c-36.42,0-66.048,29.628-66.039,66.039c-0.026,25.438,8.695,50.389,24.576,70.289c6.528,8.124,10.743,17.877,12.211,28.279    l1.101,7.287c3.422,23.637,24.004,41.438,47.872,41.438c0.026,0,0.051,0,0.077,0c12.646,0,24.55-4.796,33.621-13.542    c9.062,8.738,20.966,13.542,33.613,13.542c0.017,0,0.043,0,0.06,0c23.987,0,44.578-17.894,47.898-41.566l1.118-7.424    c1.451-10.317,5.666-20.062,12.211-28.203c15.829-19.823,24.55-44.715,24.567-70.093C375.467,89.361,345.83,59.733,309.41,59.733z     M337.587,185.207c-8.457,10.522-13.909,23.142-15.787,36.412l-1.118,7.424C318.524,244.42,305.195,256,289.673,256    c-0.009,0-0.026,0-0.043,0h-0.009c-8.397,0-16.29-3.26-22.221-9.19l-5.376-5.376c-3.337-3.336-8.73-3.336-12.066,0l-5.376,5.376    c-5.922,5.931-13.815,9.19-22.221,9.19c-0.017,0-0.034,0-0.051,0c-15.454,0-28.774-11.529-31.002-26.88l-1.101-7.253    c-1.886-13.355-7.339-25.975-15.77-36.471c-13.466-16.862-20.855-38.033-20.838-59.614c0-27.008,21.973-48.981,48.981-48.981    h5.547c16.41,0.009,31.659,8.158,40.772,21.811c3.166,4.745,11.025,4.745,14.191,0c9.122-13.653,24.363-21.803,40.781-21.811    h5.547c27.008,0,48.981,21.973,48.981,48.981C358.391,147.302,350.984,168.414,337.587,185.207z" fill="#ffc100"/>
  </g>
</g>
<g>
  <g>
    <path d="M285.005,1.707C261.504,19.345,247.467,47.42,247.467,76.8v17.067h17.067V76.8c0-24.038,11.486-47.01,30.72-61.44    L285.005,1.707z" fill="#ffc100"/>
  </g>
</g>
<g>
  <g>
    <path d="M196.267,0H179.2c-4.71,0-8.533,3.823-8.533,8.533c0,37.641,30.626,68.267,68.267,68.267H256    c4.719,0,8.533-3.823,8.533-8.533C264.533,30.626,233.907,0,196.267,0z M238.933,59.733c-25.327,0-46.413-18.483-50.492-42.667    h7.825c25.327,0,46.413,18.483,50.492,42.667H238.933z" fill="#ffc100"/>
  </g>
</g>
<g>
  <g>
    <path d="M469.333,256H25.6c-4.71,0-8.533,3.814-8.533,8.533V332.8c0,4.719,3.823,8.533,8.533,8.533h443.733    c4.719,0,8.533-3.814,8.533-8.533v-68.267C477.867,259.814,474.052,256,469.333,256z M460.8,324.267H34.133v-51.2H460.8V324.267z" fill="#ffc100"/>
  </g>
</g>
<g>
  <g>
    <rect x="51.2" y="264.533" width="17.067" height="68.267" fill="#ffc100"/>
  </g>
</g>
<g>
  <g>
    <rect x="85.333" y="264.533" width="17.067" height="68.267" fill="#ffc100"/>
  </g>
</g>
<g>
  <g>
    <rect x="392.533" y="264.533" width="17.067" height="68.267" fill="#ffc100"/>
  </g>
</g>
<g>
  <g>
    <rect x="426.667" y="264.533" width="17.067" height="68.267" fill="#ffc100"/>
  </g>
</g>
<g>
  <g>
    <rect x="136.533" y="290.133" width="34.133" height="17.067" fill="#ffc100"/>
  </g>
</g>
<g>
  <g>
    <rect x="187.733" y="290.133" width="59.733" height="17.067" fill="#ffc100"/>
  </g>
</g>
<g>
  <g>
    <rect x="264.533" y="290.133" width="17.067" height="17.067" fill="#ffc100"/>
  </g>
</g>
<g>
  <g>
    <rect x="298.667" y="290.133" width="59.733" height="17.067" fill="#ffc100"/>
  </g>
</g>
<g>
  <g>
    <rect x="85.333" y="332.8" width="17.067" height="68.267" fill="#ffc100"/>
  </g>
</g>
<g>
  <g>
    <rect x="460.8" y="324.267" width="17.067" height="68.267" fill="#ffc100"/>
  </g>
</g>
<g>
  <g>
    <rect x="332.8" y="358.4" width="59.733" height="17.067" fill="#ffc100"/>
  </g>
</g>
<g>
  <g>
    <rect x="281.6" y="358.4" width="34.133" height="17.067" fill="#ffc100"/>
  </g>
</g>
<g>
  <g>
    <rect x="221.867" y="358.4" width="42.667" height="17.067" fill="#ffc100"/>
  </g>
</g>
<g>
  <g>
    <rect x="153.6" y="358.4" width="51.2" height="17.067" fill="#ffc100"/>
  </g>
</g>
<g>
  <g>
    <rect x="34.133" y="401.067" width="17.067" height="102.4" fill="#ffc100"/>
  </g>
</g>
<g>
  <g>
    <rect x="409.6" y="401.067" width="17.067" height="102.4" fill="#ffc100"/>
  </g>
</g>
<g>
  <g>
    <rect x="119.467" y="426.667" width="153.6" height="17.067" fill="#ffc100"/>
  </g>
</g>
<g>
  <g>
    <rect x="290.133" y="426.667" width="51.2" height="17.067" fill="#ffc100"/>
  </g>
</g>
<g>
  <g>
    <rect x="145.067" y="460.8" width="68.267" height="17.067" fill="#ffc100"/>
  </g>
</g>
<g>
  <g>
    <rect x="230.4" y="460.8" width="85.333" height="17.067" fill="#ffc100"/>
  </g>
</g>
<g>
</g>
<g>
</g>
<g>
</g>
<g>
</g>
<g>
</g>
<g>
</g>
<g>
</g>
<g>
</g>
<g>
</g>
<g>
</g>
<g>
</g>
<g>
</g>
<g>
</g>
<g>
</g>
<g>
</g>
</svg>
